# xmcd
#
# Track frame offsets:
#	182
#	15540
#	31025
#	50537
#	67237
#	78232
#	98947
#	113682
#	128122
#	146347
#	164730
#	179965
#	194600
#	211095
#
# Disc length: 3019 seconds
#
# Revision: 3
# Processed by: cddbd v1.5.2PL0 Copyright (c) Steve Scherf et al.
# Submitted via: EZCDAudioConverter 8.2.2.1
#
DISCID=c80bc90e
DTITLE=VÁRIOS - FORROBODÓ - 1996 [CD M-527 178-2) POLYGRAM
DYEAR=1996
DGENRE=FORRÓ
TTITLE0=GERA SAMBA - PROCURANDO TU (BY GILMAR SINISTRO)
TTITLE1=NETINHO - AI, QUE SAUDADE D'OCÊ (BY GILMAR SINISTRO)
TTITLE2=PAULO RICARDO - COMO DOIS ANIMAIS (BY GILMAR SINISTRO)
TTITLE3=JOSÉ AUGUSTO - EU SÓ QUERO UM XODÓ (BY GILMAR SINISTRO)
TTITLE4=ZECA PAGODINHO - SEVERINA XIQUE-XIQUE (BY GILMAR SINISTRO)
TTITLE5=CASSIA ELLER - ADMIRÁVEL GADO NOVO (BY GILMAR SINISTRO)
TTITLE6=WANDO - TROPICANA (MORENA TROPICANA) (BY GILMAR SINISTRO)
TTITLE7=CHEIRO DE AMOR - CORAÇÃO BOBO (BY GILMAR SINISTRO)
TTITLE8=GUILHERME ARANTES - GOSTOSO (BY GILMAR SINISTRO)
TTITLE9=PATRICIA MARX - ANUNCIAÇÃO (BY GILMAR SINISTRO)
TTITLE10=SANDY and JUNIOR - XOTE DAS MENINAS (BY GILMAR SINISTRO)
TTITLE11=TANIA ALVES - PISA NA FULÓ (BY GILMAR SINISTRO)
TTITLE12=KÁTIA DE TROIA - QUI NEM GILÓ (BY GILMAR SINISTRO)
TTITLE13=CAMISA DE VÊNUS - RADINHO DE PILHA (BY GILMAR SINISTRO)
EXTD=
EXTT0=
EXTT1=
EXTT2=
EXTT3=
EXTT4=
EXTT5=
EXTT6=
EXTT7=
EXTT8=
EXTT9=
EXTT10=
EXTT11=
EXTT12=
EXTT13=
PLAYORDER=
